<?xml version="1.0" encoding="UTF-8" standalone="no"?>
<!-- Created with Inkscape (http://www.inkscape.org/) -->
<svg
   xmlns:dc="http://purl.org/dc/elements/1.1/"
   xmlns:cc="http://web.resource.org/cc/"
   xmlns:rdf="http://www.w3.org/1999/02/22-rdf-syntax-ns#"
   xmlns:svg="http://www.w3.org/2000/svg"
   xmlns="http://www.w3.org/2000/svg"
   xmlns:sodipodi="http://sodipodi.sourceforge.net/DTD/sodipodi-0.dtd"
   xmlns:inkscape="http://www.inkscape.org/namespaces/inkscape"
   width="506.61789"
   height="509.90164"
   id="svg2"
   sodipodi:version="0.32"
   inkscape:version="0.44+devel"
   sodipodi:modified="true"
   version="1.0">
  <defs
     id="defs4" />
  <sodipodi:namedview
     id="base"
     pagecolor="#ffffff"
     bordercolor="#666666"
     borderopacity="1.0"
     gridtolerance="10000"
     guidetolerance="10"
     objecttolerance="10"
     inkscape:pageopacity="0.0"
     inkscape:pageshadow="2"
     inkscape:zoom="0.74431465"
     inkscape:cx="321.60075"
     inkscape:cy="618.79827"
     inkscape:document-units="px"
     inkscape:current-layer="layer1"
     inkscape:window-width="742"
     inkscape:window-height="606"
     inkscape:window-x="293"
     inkscape:window-y="186" />
  <metadata
     id="metadata7">
    <rdf:RDF>
      <cc:Work
         rdf:about="">
        <dc:format>image/svg+xml</dc:format>
        <dc:type
           rdf:resource="http://purl.org/dc/dcmitype/StillImage" />
      </cc:Work>
    </rdf:RDF>
  </metadata>
  <g
     inkscape:label="Layer 1"
     inkscape:groupmode="layer"
     id="layer1"
     transform="translate(-65.888115,-179.61638)">
    <path
       id="path2373"
       style="fill:#000000"
       d="M 351.45394,642.14598 C 401.54341,634.31633 452.07783,606.3791 484.51485,567.60243 C 491.26508,561.26234 497.86481,553.15093 484.65619,550.46814 C 480.95165,546.68422 469.42652,544.67082 473.50598,537.9534 C 479.8235,533.0357 470.72639,521.10151 475.10199,519.83161 C 483.60765,520.12817 486.92217,510.09796 495.23528,511.15582 C 504.44001,509.06024 513.31129,505.74119 521.7771,501.59094 C 527.75966,482.66213 532.27888,462.90788 532.85077,443.01915 C 532.84419,430.13325 533.39991,417.20885 530.95579,404.48218 C 527.68619,382.84579 521.89439,361.32918 511.73624,341.86453 C 499.85436,316.93726 482.66273,294.57581 462.24366,276.08858 C 429.32272,247.57142 387.96137,228.75337 344.51233,224.35307 C 343.95854,233.49572 345.29384,243.03517 342.63675,251.85307 C 336.01418,251.67354 329.1232,253.50964 325.41279,259.36277 C 328.89689,258.2188 322.62413,265.95431 321.76111,258.88803 C 318.68259,252.2402 309.58473,253.08307 305.93219,246.85464 C 300.2951,240.56355 294.68274,234.24332 287.13014,230.20922 C 283.67434,226.42878 279.51461,226.82705 275.11859,228.62813 C 203.02726,245.02357 141.87093,302.05015 121.37104,373.19334 C 116.08896,391.77218 111.6956,410.97127 112.5911,430.39817 C 112.45058,441.6487 112.17318,452.91094 114.51008,463.98616 C 118.04864,483.41776 122.61342,503.01447 131.38737,520.81635 C 138.90654,515.84147 146.30417,510.41135 154.9465,507.54477 C 158.41399,511.98911 163.06095,517.79891 169.01656,517.85309 C 175.71049,516.34117 172.2067,520.23982 170.86201,524.06952 C 169.64343,529.79233 174.12934,535.23752 171.26159,540.50106 C 168.71916,546.99881 166.76007,553.60556 167.18704,560.65816 C 167.33574,565.5703 166.01202,571.07137 167.08119,575.61534 C 201.43408,611.324 247.34981,636.95556 297.04254,642.20595 C 313.58641,644.58185 334.80579,642.37351 351.45394,642.14598 z M 376.50034,617.15948 C 372.82526,615.95154 382.84487,613.38934 384.9373,611.61105 C 389.70716,611.19967 402.48592,599.45601 402.5905,603.52687 C 399.50513,607.89422 404.75925,619.22853 396.74384,617.40955 C 389.99969,617.43695 383.22153,617.80886 376.50034,617.15948 z M 247.50392,616.12744 C 241.89136,616.70522 247.7486,610.31704 244.8437,607.32166 C 240.80409,598.57648 243.78286,599.99548 249.43573,603.9566 C 253.64159,608.48454 270.92878,612.06168 267.47003,615.94408 C 260.88384,616.93081 254.10898,616.94256 247.50392,616.12744 z M 406.85074,615.59436 C 409.61571,611.65343 419.71409,607.60664 411.95536,614.54612 C 410.34283,614.83964 408.57834,616.26621 406.85074,615.59436 z M 235.18593,613.63074 C 226.57583,609.53737 235.14616,608.18081 239.88715,613.88325 C 244.28321,616.16602 235.30044,613.74319 235.18593,613.63074 z M 362.60455,611.59113 C 358.79975,608.79426 347.82831,603.08027 348.92282,600.13857 C 360.81069,597.46419 372.31236,593.41708 383.59311,588.85307 C 376.82175,595.7366 374.96624,611.94906 366.86898,613.88155 L 364.89107,612.84938 L 362.60455,611.59115 L 362.60455,611.59113 z M 273.97327,607.74799 C 270.9036,600.26031 266.27794,593.58577 261.88217,586.83936 C 271.61426,590.67433 281.36669,595.17918 291.61313,597.27449 C 298.37595,597.04741 300.71745,599.13612 293.42981,603.35894 C 288.3645,605.20818 277.71616,618.44221 274.95781,610.28707 C 274.62963,609.44071 274.30145,608.59435 273.97327,607.74799 z M 403.85074,611.5094 C 404.77562,605.22715 406.30542,598.52359 412.18796,595.09305 C 418.87297,589.15297 425.60003,583.26052 432.31384,577.35309 C 425.59163,586.23404 421.60333,597.0465 415.60298,606.2136 C 411.68557,608.74555 407.76815,611.2775 403.85074,613.80945 C 403.85074,613.04277 403.85074,612.27608 403.85074,611.5094 z M 235.52441,607.81268 C 231.39853,605.65917 228.25369,602.6344 226.75148,598.15085 C 222.98766,590.76225 219.12596,583.40696 214.5797,576.46344 C 222.17285,583.45152 230.36086,590.11809 238.00997,596.7957 C 240.05172,601.63692 243.09046,606.32773 241.35074,611.73932 C 239.40863,610.43044 237.46652,609.12156 235.52441,607.81268 z M 376.12689,609.90509 C 382.32159,596.45144 391.00208,584.01459 400.79805,572.93022 C 407.91903,566.02249 414.63381,558.51994 422.00771,551.98252 C 429.47104,548.73591 436.93436,545.48928 444.39767,542.24261 C 447.10469,544.29357 455.93377,544.65645 450.81827,548.86431 C 438.56129,565.46717 424.50675,581.02554 408.60612,594.17187 C 398.27877,601.27734 387.75521,608.62819 375.55792,612.08075 C 375.74758,611.35553 375.93724,610.63031 376.12689,609.90509 z M 417.85074,610.5144 C 424.68209,592.04544 436.03657,575.46141 446.68187,558.96789 C 450.49998,551.11218 458.93356,545.44838 462.85074,538.5111 C 464.29941,532.56369 460.44656,528.4608 454.92668,526.3406 C 447.3623,529.53442 467.23243,535.16427 456.383,540.41172 C 452.86656,544.10024 445.47763,539.67574 443.96208,535.50015 C 437.15998,524.8355 452.30378,511.86885 462.79077,515.8761 C 466.39969,519.72777 471.77059,522.55147 471.95422,528.40148 C 471.8751,536.61875 465.34714,543.23595 462.64933,550.60429 C 459.55631,564.82013 452.94394,578.24175 445.91134,590.85773 C 439.07463,596.86967 433.80476,605.00826 425.18719,608.60309 C 423.77724,608.55219 418.02861,614.01442 417.85074,610.5144 z M 221.02307,607.10309 C 207.12329,598.94008 196.17161,585.91973 190.87424,570.69805 C 186.80557,562.67711 184.82548,553.74913 182.06524,545.38189 C 179.12681,540.02007 174.22788,535.29188 175.03471,528.7196 C 173.37329,523.83595 175.949,520.58245 179.7616,517.80482 C 182.4956,513.38546 187.0607,513.52964 191.70048,513.85996 C 196.82393,515.74164 201.65841,520.34748 203.85074,525.25831 C 204.5722,530.74651 202.41436,537.38882 196.55553,538.92513 C 192.14194,542.08954 185.93876,538.3526 186.85074,533.26141 C 186.91686,529.29044 195.06121,530.0235 192.85074,524.71826 C 186.94976,526.15704 179.42506,532.31 184.34163,538.81583 C 188.51971,542.33279 192.26285,546.10785 195.09869,550.98585 C 207.79821,569.93917 221.0809,589.11687 228.93117,610.66657 C 226.84747,611.43774 223.29706,608.05902 221.02307,607.10309 z M 266.85074,609.36609 C 249.49187,602.35442 233.86655,591.25446 221.24994,577.46149 C 210.40286,567.69122 201.91281,555.8256 192.86211,544.45837 C 197.12407,543.59933 201.46642,539.12175 205.6393,542.27165 C 212.25886,545.65522 219.99668,547.39091 225.8715,551.87191 C 236.1334,562.48323 247.56303,572.08092 255.74324,584.49921 C 262.21625,592.16068 266.84502,601.08963 270.69108,610.30374 L 269.42259,610.15124 L 266.85074,609.3661 L 266.85074,609.36609 z M 339.07578,589.46619 C 336.87199,584.60233 324.34229,569.56247 335.87112,571.2939 C 346.03867,571.00596 356.33316,571.90721 366.22549,569.04126 C 360.10055,574.3913 353.4987,579.32395 349.73162,586.73751 C 345.31929,592.21326 343.81755,600.882 339.07578,589.46619 z M 350.93799,591.91162 C 356.74229,582.32423 364.96558,573.94802 374.04943,567.61265 C 387.38252,564.41877 400.52053,560.33845 413.35074,555.5083 C 404.58009,564.37786 396.38901,574.06089 387.95023,583.04602 C 375.1522,588.00581 362.67714,595.35466 348.72278,595.85309 C 349.46118,594.53927 350.19958,593.22544 350.93799,591.91162 z M 288.85074,593.33557 C 277.89563,589.89622 266.69568,585.99069 256.88069,580.08371 C 249.18359,571.03171 240.87837,562.52787 232.62633,553.98657 C 245.79903,558.95123 259.54747,562.65193 272.90738,566.64036 C 283.06995,574.26245 292.1304,583.50822 298.05383,594.85309 C 294.92515,594.84205 291.88074,594.02627 288.85074,593.33557 z M 298.3522,587.72443 C 294.26817,579.56086 286.68907,574.16168 280.62827,567.56165 C 292.13085,570.20641 304.1547,569.34416 315.90005,570.12231 C 313.01204,578.87119 308.26781,587.09193 302.28479,594.0957 C 300.97393,591.97194 299.66307,589.84819 298.3522,587.72443 z M 336.89639,566.96906 C 331.42594,565.42106 344.80458,560.08915 346.32869,557.42709 C 365.19446,544.71707 386.1649,534.73435 407.75203,527.86583 C 417.61862,528.2913 427.48521,528.71674 437.35181,529.14215 C 438.18379,532.71092 441.707,537.36989 441.00591,540.31765 C 409.1113,554.79905 375.08649,567.39984 339.66308,567.53609 L 336.89639,566.96908 L 336.89639,566.96906 z M 282.77921,564.32306 C 256.13568,559.69316 230.30924,550.60196 206.02205,538.82138 C 205.87805,534.33633 206.10151,523.7004 214.29866,526.85309 C 223.45507,527.03534 232.75055,526.49203 241.82191,527.118 C 265.32437,536.29511 288.66349,546.91924 308.78942,562.3079 C 316.25244,567.59185 306.07866,565.40569 302.13103,565.75972 C 295.61279,565.85155 289.1811,565.69126 282.77921,564.32306 z M 329.48648,559.49963 C 329.31927,553.14358 327.84648,543.69186 329.53197,538.84164 C 338.48929,541.45832 347.5466,544.75491 356.96878,544.85309 C 348.76075,551.45944 339.11126,556.60259 331.15887,563.79314 C 329.21274,566.48304 330.07536,560.43284 329.48648,559.49963 z M 312.35074,560.1391 C 305.0346,554.03925 297.07168,548.73053 288.73642,544.12811 C 298.46895,542.48209 308.16293,540.49451 317.45684,537.1268 C 317.42296,545.97051 316.73384,554.80048 316.35074,563.63507 C 315.01741,562.46975 313.68407,561.30442 312.35074,560.1391 z M 347.35074,540.28717 C 339.75025,539.37975 324.63164,534.67001 339.63162,530.40814 C 348.82023,526.36256 359.01662,522.94917 369.0726,523.09997 C 379.44677,524.89245 389.86208,526.47331 400.35074,527.42078 C 387.7112,531.2565 375.79758,537.45565 363.46961,541.8394 C 358.05627,541.85501 352.66306,541.34069 347.35074,540.28717 z M 272.85074,536.54034 C 266.18747,532.57396 251.76046,529.38002 249.508,525.90129 C 265.16994,523.81118 281.59259,518.97419 296.9364,525.22756 C 302.7672,527.11251 323.02327,533.70102 307.86693,536.55434 C 299.37999,538.65636 290.36538,540.80999 281.69926,540.58911 C 278.74975,539.23952 275.80025,537.88993 272.85074,536.54034 z M 328.50244,524.10309 C 328.69725,517.92186 323.84187,502.22315 334.97089,512.11828 C 342.38084,515.54258 350.15598,518.04673 357.91098,520.55084 C 347.94942,522.58802 338.49906,526.3956 329.39155,530.85307 C 328.88061,528.63541 328.75891,526.3566 328.50244,524.10309 z M 313.35074,527.7738 C 305.41445,523.08569 296.35625,520.92681 287.39417,519.18652 C 297.75945,516.34334 307.73803,512.33895 317.49157,507.85307 C 318.11036,515.1607 317.75774,522.52128 317.85074,529.85309 C 316.13326,529.91166 314.81048,528.3362 313.35074,527.7738 z M 409.85074,524.77698 C 383.20595,522.13928 355.17223,518.94637 331.85074,504.8483 C 346.63363,499.16934 362.77198,500.00213 378.30514,498.51729 C 388.84758,499.41078 399.59729,499.54841 410.01361,500.9019 C 421.1998,506.8463 433.19631,511.03876 444.67544,516.34444 C 441.21849,522.42691 438.72852,527.9775 430.97087,525.73184 C 423.92374,525.62747 416.88049,525.27312 409.85074,524.77698 z M 206.85074,522.88788 C 202.29002,517.0509 197.68004,513.19374 208.50786,511.70118 C 218.34561,507.88264 227.79008,502.7137 237.77014,499.43001 C 253.12675,496.39842 268.78479,498.50767 284.3114,498.37548 C 294.82457,498.08407 305.45608,499.81989 315.21875,503.63852 C 288.56287,517.99607 257.80833,521.68026 228.04188,523.85309 C 220.97817,523.85309 213.91445,523.85309 206.85074,523.85309 L 206.85074,523.13665 L 206.85074,522.88788 z M 467.15894,513.41626 C 462.11649,512.53336 460.83877,508.48563 460.08239,503.99964 C 459.37117,497.56297 462.55451,489.10473 469.01218,486.85306 C 473.26161,486.55416 477.4017,486.65531 480.7546,489.6368 C 484.36006,492.50408 485.17731,499.25856 479.21891,500.5536 C 476.26695,501.53593 470.2204,494.94281 469.99303,500.31961 C 475.359,507.66009 486.86252,505.24147 487.20583,495.28028 C 488.27737,488.29446 493.11229,482.43182 495.77324,475.92969 C 504.83825,458.81102 514.20147,441.29522 527.37174,427.03109 C 528.48129,429.40556 527.54478,435.44977 527.85077,439.26546 C 528.31864,448.75627 525.27163,458.18136 520.50561,466.31652 C 515.90387,476.20922 506.40534,482.66897 500.29825,491.58194 C 493.81819,498.2651 489.23803,507.16427 482.46397,513.28325 C 477.67704,516.27251 472.05275,516.44704 467.15894,513.41626 z M 164.05862,511.60306 C 151.88666,499.05319 141.99782,484.34585 130.18482,471.38131 C 125.50774,466.25932 123.00704,459.43384 120.38561,453.13834 C 118.56679,445.71706 117.13581,438.26378 118.17675,430.6065 C 118.60621,419.02061 129.57664,439.73223 132.20705,442.92238 C 142.10342,458.66052 151.38812,475.15131 158.84914,492.06949 C 157.60715,496.74734 161.37771,499.59588 164.02853,502.85306 C 168.31703,503.42001 172.18622,502.49706 175.52536,499.69077 C 178.69174,493.44001 168.49335,499.10491 164.80786,498.85306 C 162.48454,495.60983 161.63506,489.54089 165.89094,487.83814 C 169.53897,486.53229 173.06405,483.26792 176.95078,485.76489 C 181.37111,486.03982 183.52627,490.48628 185.27167,493.88379 C 185.73666,499.24228 186.94627,504.71711 183.75269,509.50402 C 179.15062,512.33648 173.73536,514.67901 168.07966,513.85309 C 166.53385,514.0248 165.38952,512.19071 164.05862,511.60306 z M 437.35074,509.98749 C 408.57911,497.25364 380.49247,481.81614 356.33068,461.55358 C 348.69307,453.86818 341.05546,446.18278 333.41785,438.49738 C 343.4705,437.70027 353.41825,442.32656 363.07351,444.94302 C 376.51163,449.39315 388.66499,456.99777 401.54874,462.80907 C 414.74486,470.00024 426.73758,479.33026 439.19314,487.72233 C 444.51783,491.90385 450.56476,495.75575 455.17116,500.5887 C 456.69812,505.2043 460.37423,512.238 452.86777,512.25269 C 447.27268,515.54834 442.58845,511.95599 437.35074,509.98749 z M 194.85074,511.35306 C 184.84617,512.38407 189.12235,498.25041 194.84376,495.48766 C 229.19851,468.88474 267.25421,444.02534 310.73691,436.30653 C 308.18639,444.5445 295.49588,453.97357 287.90444,461.35314 C 261.27513,483.5963 230.22576,500.12308 198.06771,512.81763 L 196.82698,512.3728 L 194.85074,511.35307 L 194.85074,511.35306 z M 327.85074,487.76041 C 327.85074,483.39618 327.85074,479.03195 327.85074,474.66772 C 334.12359,480.76462 340.8306,486.26997 348.69026,490.20477 C 350.58964,492.06726 361.28588,495.83866 355.00028,495.92502 C 345.77711,496.52448 336.88012,499.26939 327.85074,500.85306 C 327.85074,496.48884 327.85074,492.12462 327.85074,487.76041 z M 313.85074,498.71072 C 306.6285,495.52069 295.96117,496.11029 289.85074,494.01675 C 299.02612,487.08935 309.58047,481.88226 317.85074,473.69797 C 317.85074,482.41633 317.85074,491.13469 317.85074,499.85306 C 316.44334,499.85286 315.15044,499.12546 313.85074,498.71072 z M 394.35074,496.81458 C 384.78701,495.51697 374.87696,496.48811 365.40849,495.5199 C 354.01779,489.47147 342.02619,483.93505 332.92856,474.53616 C 335.03378,470.95584 340.67251,473.71327 344.29429,472.85306 C 351.80242,472.44959 359.4127,473.50822 366.57717,475.47398 C 377.98573,483.43219 390.34329,489.9768 401.84404,497.70605 C 399.34367,497.43108 396.84726,497.122 394.35074,496.81458 z M 445.35074,488.64407 C 438.70322,482.69949 430.62569,478.14494 424.2404,472.14022 C 414.48238,456.66385 405.01325,440.80039 397.84868,423.96834 C 395.70013,416.95161 392.1919,410.12089 391.85074,402.72534 C 399.76541,407.7812 407.25327,413.35009 413.47265,420.4437 C 422.28023,428.36673 429.51608,437.66521 436.29974,447.33451 C 445.28266,459.94531 453.80048,472.91871 461.18069,486.54004 C 458.37894,490.49156 457.78245,501.66104 452.44609,494.3629 C 450.08097,492.45663 447.71585,490.55035 445.35074,488.64407 z M 188.847,494.10306 C 186.24868,488.74186 183.29915,484.39719 188.23846,479.4088 C 205.40814,450.61613 224.66329,421.56327 252.7116,402.31282 C 256.54164,404.77377 249.97314,415.24931 248.89105,420.98571 C 241.90663,438.36548 232.12893,454.54683 222.10806,470.35306 C 211.2903,478.95259 200.64492,487.80535 189.4109,495.85307 L 189.01419,495.33901 L 188.847,494.10307 L 188.847,494.10306 z M 244.85074,495.58185 C 257.04637,488.68692 268.76409,480.66885 280.70641,473.53447 C 291.6896,471.20463 303.02118,469.57928 314.12402,472.35306 C 304.62118,481.6296 292.76201,488.55519 280.63507,493.60286 C 268.69624,493.99598 256.71358,495.02169 244.85074,495.58185 z M 483.66788,487.3959 C 476.79961,485.67693 478.78262,478.96467 477.88523,473.62004 C 477.40044,466.18167 475.60809,458.62739 478.70167,451.50622 C 484.49604,429.97333 492.99443,408.85816 506.05688,390.65924 C 509.66336,393.95047 507.6291,399.81595 508.6831,404.27204 C 509.62754,413.79038 507.45115,423.32088 506.32518,432.74062 C 501.60518,452.34788 495.11761,471.54744 486.35074,489.72729 C 485.45645,488.95016 484.56216,488.17303 483.66788,487.3959 z M 156.45714,480.65598 C 147.21613,459.69623 139.69569,437.41181 137.88163,414.4874 C 138.19896,405.7802 137.22677,396.84644 139.45216,388.35306 C 154.96196,408.70449 163.61334,433.5525 169.56896,458.12404 C 168.87607,466.36705 168.18318,474.61005 167.4903,482.85306 C 162.70057,484.71851 158.93133,491.25521 157.4503,482.83532 C 157.11924,482.10887 156.78819,481.38242 156.45714,480.65598 z M 455.70581,471.48285 C 452.29228,464.87295 446.88575,458.94585 447.0756,451.10143 C 445.29123,439.90061 443.85317,428.67532 444.42556,417.30797 C 444.46432,404.89115 443.59858,392.40632 446.38266,380.19593 C 446.72017,369.15235 453.7559,387.0576 455.58658,390.19828 C 468.56176,419.1582 473.23663,451.10466 475.12646,482.56189 C 470.11686,481.8854 462.87766,488.05272 461.20674,481.0422 C 459.3731,477.85575 457.53945,474.6693 455.70581,471.48285 z M 180.59441,482.76965 C 172.39616,482.59742 168.07295,480.86984 171.46297,471.55857 C 174.19473,447.46878 177.34971,423.22163 185.70261,400.32391 C 188.75796,391.24999 193.39571,382.85678 198.10986,374.56473 C 203.35361,389.10754 201.50513,404.9199 201.84885,420.14051 C 201.97297,431.81853 199.94695,443.5041 198.40909,455.00123 C 193.70327,464.93593 188.05053,474.40414 182.35074,483.79269 C 181.76529,483.45168 181.17985,483.11067 180.59441,482.76965 z M 327.85062,461.25394 C 327.84307,453.49231 328.43606,445.75096 329.12961,438.02588 C 337.37409,449.82112 348.16597,459.44126 358.49216,469.35306 C 348.27827,469.35306 338.06438,469.35306 327.85049,469.35306 C 327.85054,466.65335 327.85058,463.95364 327.85062,461.25394 z M 297.59201,458.3775 C 304.9539,451.37273 311.97297,443.96504 317.85074,435.65491 C 317.85074,446.73366 317.85074,457.81242 317.85074,468.89117 C 307.63465,466.7411 296.62166,466.66057 286.43185,468.99631 C 290.15191,465.45671 293.87196,461.9171 297.59201,458.3775 z M 410.37677,463.64313 C 401.17179,457.46291 390.76596,452.95119 381.46973,447.13278 C 374.89855,438.36736 367.94307,429.4732 364.71597,418.85306 C 377.58325,421.80397 388.52788,430.32004 399.63474,437.29987 C 405.23518,448.23586 412.54353,458.18658 418.65976,468.79091 C 415.84649,467.16275 413.12868,465.37188 410.37677,463.64313 z M 227.38773,466.79321 C 234.41431,456.74736 240.71395,445.91112 246.92643,435.53053 C 257.74309,428.49766 268.3513,420.72059 280.85074,416.9418 C 279.11337,426.85848 272.2998,435.41072 266.34659,443.36148 C 262.16785,449.76238 253.61563,450.68483 247.75905,455.08217 C 240.77543,458.64483 234.49641,463.49941 227.38773,466.79321 z M 138.83994,448.60266 C 134.95111,441.151 129.03074,434.63502 125.08514,427.40723 C 124.77581,422.58704 124.46647,417.76685 124.15712,412.94666 C 128.92566,416.14576 134.41753,420.66471 136.1495,426.20122 C 136.8833,434.00314 143.03355,451.32498 141.34404,452.86244 L 140.20543,450.95925 L 138.83993,448.60265 L 138.83994,448.60266 z M 504.39169,453.35306 C 508.52387,442.13679 506.80412,428.18363 515.87875,419.33814 C 522.02074,411.37602 522.754,416.53239 521.26324,422.94348 C 521.4951,427.83272 519.8227,432.05633 516.70191,435.77365 C 512.4026,442.31074 508.19129,448.90759 503.75497,455.35306 C 503.96721,454.68639 504.17945,454.01972 504.39169,453.35306 z M 202.24142,448.35306 C 204.38255,436.26996 205.17099,423.62271 206.25998,411.62048 C 212.17555,402.48666 219.46735,394.38068 227.24182,386.80051 C 230.81506,391.55933 227.37995,397.7126 227.50366,403.15778 C 227.04104,410.69334 223.91146,417.81874 221.30356,424.7574 C 214.32909,433.30216 207.88346,442.25633 201.6525,451.35306 C 201.84881,450.35306 202.04512,449.35306 202.24142,448.35306 z M 434.11685,438.34314 C 428.79031,431.23232 422.6472,424.45293 421.09973,415.34873 C 418.37765,406.73548 417.34171,397.84743 417.85074,388.85306 C 425.76753,393.40608 431.53035,402.00786 437.36168,409.18211 C 441.7274,413.74101 439.76697,420.66634 441.05375,426.38297 C 441.01845,433.4083 444.5763,445.76611 442.82484,449.50419 C 439.78854,445.89086 436.95855,442.10973 434.11685,438.34314 z M 169.96762,448.35306 C 167.11599,436.35841 161.97486,424.85231 158.87725,413.02128 C 160.35653,399.36998 160.9364,385.3437 165.96558,372.42084 C 171.74271,381.89996 176.85528,392.56795 178.11353,403.66705 C 179.37616,414.94452 174.09946,425.5681 172.72406,436.61064 C 171.71383,440.25498 171.47264,445.54511 169.96762,448.35306 z M 474.04932,441.57367 C 473.03114,430.81936 468.72169,420.5488 467.85074,409.8599 C 467.6061,398.30131 473.17795,387.40075 478.0438,377.19269 C 483.88443,372.2034 483.73103,391.21655 485.34295,395.72244 C 485.59611,403.16306 487.89199,411.05958 486.36992,418.39028 C 482.8325,428.7252 479.56909,439.16146 475.67038,449.36676 C 474.70923,446.87242 474.49506,444.18629 474.04932,441.57367 z M 361.75018,440.2226 C 353.49134,436.86235 344.92829,434.7914 336.10545,433.60562 C 333.0143,430.03621 349.57112,424.88747 353.98403,421.11412 C 362.66301,412.94453 362.05486,426.99406 366.13456,432.06159 C 369.64879,437.91545 379.67504,448.9558 366.65468,441.93535 L 364.28445,441.10621 L 361.75018,440.22261 L 361.75018,440.2226 z M 274.99963,438.29752 C 281.60454,434.10612 281.91189,417.09442 287.8275,417.06301 C 296.18137,421.86348 304.76105,426.30044 312.84979,431.54071 C 298.68413,434.03488 284.7812,437.98214 271.39493,443.24197 C 272.5965,441.59382 273.79807,439.94567 274.99963,438.29752 z M 391.85074,428.21045 C 384.88203,422.06686 371.35544,418.8805 366.75523,414.14067 C 375.34779,410.157 390.28635,394.99415 389.97608,413.28278 C 389.676,416.88115 400.69599,435.20281 391.85074,428.21045 z M 253.48831,419.90939 C 257.69057,416.01338 255.51399,399.42113 261.50849,402.21628 C 267.99038,406.0237 274.60171,409.60333 281.18936,413.22275 C 270.38209,417.21795 260.29755,422.8306 250.51434,428.85307 C 251.22292,425.78477 252.42354,422.86349 253.48831,419.90939 z M 306.68393,420.69827 C 302.12833,418.04641 297.57272,415.39454 293.01712,412.74268 C 299.3998,404.22678 305.23515,395.25181 309.2424,385.35306 C 311.23326,400.14173 315.69588,414.39064 320.59413,428.42673 C 315.81969,426.11987 311.29497,423.31277 306.68393,420.69827 z M 328.14444,425.53006 C 333.15462,413.06405 335.64975,399.8123 338.84031,386.85682 C 340.95467,396.06379 354.32149,406.5368 351.32749,413.66748 C 345.07844,416.1489 330.81421,427.52606 328.14444,425.53006 z M 523.95044,423.81735 C 523.8721,413.90872 527.28265,417.41117 526.55163,423.58075 C 525.01961,424.94849 523.07933,428.05016 523.95044,423.81735 z M 120.64958,423.10306 C 117.37896,422.17139 121.61645,412.6678 121.45896,415.85306 C 121.17641,417.2082 124.27894,428.80378 120.64958,423.10306 z M 322.35489,420.35306 C 313.20038,395.12045 311.31589,367.85107 310.77902,341.20853 C 311.89205,323.2565 313.2109,305.29847 315.97617,287.51352 C 319.20797,286.07253 322.48411,278.60655 325.68211,281.75816 C 328.56961,284.7158 333.05684,286.82841 332.44078,291.63676 C 335.08425,310.91459 336.67451,330.43043 337.02678,349.8641 C 335.81937,365.84917 335.59994,381.95657 331.94807,397.63894 C 330.66763,406.88141 326.72553,415.44916 324.10947,424.35306 C 323.52461,423.01972 322.93975,421.68639 322.35489,420.35306 z M 511.35074,405.19464 C 511.35074,400.37722 511.35074,395.55979 511.35074,390.74237 C 516.3565,396.53722 519.57129,403.55565 523.16846,410.25009 C 519.05055,410.49072 511.30112,423.20447 511.35074,416.78117 C 511.35074,412.91899 511.35074,409.05682 511.35074,405.19464 z M 412.35074,413.20175 C 406.57272,407.83199 400.20795,403.16347 393.77353,398.62244 C 400.29442,395.01346 406.69057,391.16197 413.37024,387.85307 C 413.83334,395.55006 413.81532,403.27046 416.13008,410.75017 C 418.01062,416.68756 420.18918,421.77847 413.53096,414.29459 L 412.35074,413.20174 L 412.35074,413.20175 z M 131.35074,414.80609 C 125.93488,410.80514 120.11785,409.32264 126.05385,402.83167 C 127.70516,400.03316 135.23935,384.95305 135.27343,391.54341 C 135.03687,400.36541 134.81785,409.18915 134.35074,418.00266 C 133.35074,416.93713 132.35074,415.87161 131.35074,414.80609 z M 230.08646,409.47293 C 232.83194,401.9087 231.85067,393.8327 232.28407,385.95096 C 238.92426,389.67285 245.92887,392.85772 252.01007,397.48187 C 243.35621,402.87674 235.92144,409.90918 228.27116,416.59277 C 228.87626,414.21949 229.48136,411.84621 230.08646,409.47293 z M 277.11127,403.28568 C 273.95062,400.90791 267.78549,398.85191 266.52755,396.27038 C 273.87406,389.95059 279.90982,382.33004 285.78012,374.66555 C 287.61626,385.71199 284.91259,397.23236 288.34764,408.0608 C 289.50341,412.40215 278.73122,403.22363 277.11127,403.28568 z M 360.04819,405.10306 C 361.78609,395.10576 361.75712,384.91755 362.35074,374.8111 C 367.95531,382.43652 373.95089,389.78063 380.85074,396.26865 C 374.40772,399.67805 364.44929,407.86274 359.41034,407.75151 L 360.04819,405.10307 L 360.04819,405.10306 z M 489.03894,398.36761 C 488.62126,389.21612 485.71084,380.57012 483.15085,371.85306 C 491.67805,373.69837 499.44132,378.99611 506.14847,384.54453 C 500.10771,392.09872 495.18762,400.43119 490.47576,408.85307 C 489.8208,405.38798 489.4949,401.86305 489.03894,398.36761 z M 152.82074,402.06976 C 149.08518,395.33825 144.44377,389.18186 139.98792,382.92273 C 147.17167,377.52285 154.78712,372.33622 163.50674,369.82748 C 160.52465,377.92705 157.9953,386.13278 157.39647,394.79117 C 155.83552,397.88876 157.5233,413.52414 152.82074,402.06976 z M 291.43961,405.66644 C 288.44667,393.83053 290.23743,381.33465 289.79477,369.19299 C 295.64677,357.85066 301.49876,346.50832 307.35074,335.16599 C 307.15652,350.42703 307.7306,365.84797 307.0608,381.01004 C 302.98787,390.14499 299.11376,399.99899 291.83661,406.97983 L 291.62931,406.29404 L 291.43961,405.66644 z M 350.53287,400.23676 C 346.73294,393.24714 341.50927,386.14366 340.38754,378.20375 C 340.37527,363.83535 340.36301,349.46694 340.35074,335.09854 C 346.00012,346.12288 351.6631,357.39425 357.63145,368.06823 C 358.26486,379.80284 359.9089,391.62975 356.87555,403.19334 C 355.31704,411.87287 352.93101,402.602 350.53287,400.23676 z M 435.62564,401.08514 C 430.78428,392.93819 411.0601,383.19819 429.11904,378.82112 C 436.0352,374.7708 448.13566,368.97512 442.02272,382.21818 C 440.78676,390.08832 440.16375,398.03406 439.33804,405.95316 C 438.10058,404.33049 436.86311,402.70781 435.62564,401.08514 z M 205.86281,397.35306 C 207.01101,389.41358 201.63871,375.29775 202.92218,371.02885 C 211.22112,374.00125 219.11645,378.11967 226.6429,382.69727 C 219.53853,390.05377 211.99505,397.06719 205.94466,405.35306 C 205.91737,402.68639 205.89009,400.01972 205.86281,397.35306 z M 462.94223,397.7641 C 459.66194,388.35768 455.18802,379.36571 449.81375,370.98117 C 459.0444,369.51958 468.41211,369.3274 477.73065,369.85306 C 473.63058,378.1283 468.01265,385.81439 466.64605,395.14766 C 465.56856,398.07101 464.88805,405.46357 462.94223,397.7641 z M 179.6405,393.58698 C 178.36781,384.55707 172.75337,377.12573 169.03848,368.995 C 176.4212,367.68093 193.37866,365.61674 194.83568,372.07918 C 189.21325,381.09933 185.2395,390.96891 181.35074,400.82086 C 180.78066,398.40957 180.21058,395.99827 179.6405,393.58698 z M 250.09732,387.0741 C 239.36174,383.38798 241.34728,378.14549 250.4085,374.30763 C 256.36759,371.36816 259.84279,365.47085 264.85074,361.33216 C 262.0317,371.60894 260.58219,382.17077 259.3439,392.73407 C 256.26171,390.84741 253.17951,388.96075 250.09732,387.0741 z M 265.21692,383.35306 C 265.81325,366.62492 272.62909,350.83879 278.33252,335.33074 C 284.92946,319.20655 292.50666,303.41846 301.9425,288.74741 C 305.271,291.64296 310.61274,287.43531 312.85074,288.73072 C 310.65825,301.95107 309.5451,315.47879 307.46326,328.66155 C 296.03837,351.56214 283.57634,374.77445 264.5943,392.35306 C 264.80184,389.35306 265.00938,386.35306 265.21692,383.35306 z M 375.98843,385.28851 C 365.46289,374.55522 358.48651,360.96359 350.58417,348.31309 C 347.04522,341.22703 342.34825,334.38937 339.8452,326.9293 C 338.43453,313.94342 336.87112,300.9547 334.85074,288.06567 C 341.42744,289.86863 348.3749,287.409 350.37592,296.03896 C 365.13836,323.29084 379.01296,352.17107 382.87471,383.20918 C 382.15238,386.06289 383.87376,395.77826 379.92917,389.58423 C 378.61559,388.15233 377.30201,386.72042 375.98843,385.28851 z M 387.46808,384.64566 C 387.88209,378.46562 382.52623,363.52023 383.68965,361.85982 C 388.79372,367.52864 393.96587,373.11602 400.81906,376.6925 C 404.5239,379.11954 410.77321,381.6206 403.40385,383.72546 C 397.3103,385.70413 385.96238,398.99948 387.46808,384.64566 z M 412.46539,373.10306 C 412.9912,366.69194 403.07283,350.77079 406.65204,350.06085 C 416.07896,354.96507 425.75571,359.47028 435.81982,362.79212 C 429.61309,366.6822 417.02862,380.5614 412.7356,374.94741 L 412.4654,373.10307 L 412.46539,373.10306 z M 222.46413,369.76807 C 218.83525,367.41799 215.20638,365.06791 211.5775,362.71783 C 222.42323,359.26113 232.83444,354.62976 242.85044,349.23332 C 237.98027,356.56163 238.45084,374.31536 231.7775,375.61765 C 228.63409,373.73076 225.54393,371.75648 222.46413,369.76807 z M 238.85074,374.8114 C 240.30878,364.24254 244.40258,353.69563 249.66112,344.59762 C 260.02845,338.01946 269.3537,329.98019 279.32454,322.85307 C 275.71467,332.33791 271.37239,341.73189 268.12149,351.2833 C 260.21373,361.68718 250.551,370.97104 238.85074,376.98105 C 238.85074,376.25783 238.85074,375.53462 238.85074,374.8114 z M 401.75577,372.72534 C 393.77318,368.37368 388.06664,360.99502 381.96297,354.50196 C 376.68784,344.10817 372.5102,333.20705 367.9686,322.48382 C 378.50327,330.2089 388.77593,338.41026 399.5708,345.84177 C 402.94303,356.06881 409.61695,365.69969 408.64507,376.85307 C 406.24881,375.64945 404.01827,374.15579 401.75577,372.72534 z M 203.95473,355.3187 C 199.78173,348.02952 184.952,331.5391 202.60074,334.5789 C 209.84361,334.80544 216.67792,332.94426 223.47849,330.64351 C 226.20067,333.77785 213.74595,344.54912 211.35646,351.39812 C 209.14927,354.40123 207.44072,362.31098 204.25218,355.65747 L 203.95473,355.3187 z M 215.75851,352.17749 C 223.05592,339.57265 231.99505,327.99004 242.93636,318.36029 C 257.69547,303.66293 274.1394,290.80184 291.20734,278.91031 C 292.48216,284.11978 301.79664,287.04258 296.57677,292.07964 C 291.21119,300.40804 287.66321,310.17545 280.91788,317.39009 C 260.28433,334.00869 238.00943,349.71465 212.62312,358.06009 C 213.66825,356.09922 214.71338,354.13836 215.75851,352.17749 z M 428.20673,355.7706 C 405.85781,346.34365 385.30668,332.76706 366.83216,317.13626 C 359.53102,308.66836 355.13147,298.17807 349.35074,288.67245 C 352.42335,286.18896 355.25323,281.12196 358.472,280.19416 C 384.05843,298.59977 409.38006,318.79115 427.44963,344.9299 C 430.13256,349.12186 439.59292,362.17508 428.20672,355.77061 L 428.20673,355.7706 z M 436.88864,352.10306 C 434.13932,344.94002 422.16876,333.31418 422.1966,329.65707 C 429.50335,332.22645 436.76076,335.05337 444.65029,334.58168 C 452.9546,333.46217 457.58309,336.79493 450.73317,343.91408 C 446.76154,347.91699 441.35035,365.66566 436.88864,352.10306 z M 196.79742,327.92795 C 205.78252,318.11138 216.86576,309.95637 228.05718,302.99446 C 239.35775,301.41431 250.34797,298.17648 261.56105,296.23005 C 251.70422,305.25427 241.79808,314.32212 232.27643,323.74857 C 222.96028,326.58982 213.97529,331.13983 204.00401,330.60083 C 201.00413,330.106 191.25032,333.35192 196.5678,328.25043 L 196.79742,327.92795 z M 433.35074,329.371 C 425.33509,327.01436 416.10859,325.76497 410.71613,318.73221 C 402.97233,310.74882 393.99097,304.0684 386.21409,296.15638 C 397.7642,298.45132 409.49961,301.11387 420.94081,303.52448 C 432.33651,311.61947 444.73913,319.29475 452.89685,330.85306 C 446.3543,330.82598 439.77869,330.75771 433.35074,329.371 z M 190.34555,327.35306 C 189.62583,319.96046 188.49072,312.02102 189.13849,304.76467 C 191.05921,300.79015 196.34506,304.5116 199.83815,304.13306 C 206.61809,305.82913 213.46917,304.15291 220.29469,303.68823 C 209.54362,311.07902 200.1243,320.13914 190.93732,329.35306 C 190.74006,328.68639 190.54281,328.01972 190.34555,327.35306 z M 450.85074,323.45642 C 446.89562,317.00232 428.64903,306.89769 430.48932,303.96296 C 437.57995,305.10868 444.64849,305.13454 451.68631,303.60212 C 457.03663,301.0658 459.48315,305.88849 458.28372,310.62455 C 457.80472,316.20698 459.23999,322.34924 457.49384,327.56108 C 456.31971,332.1261 452.6676,324.22495 450.85074,323.45642 z M 197.43237,300.05487 C 190.45354,299.01957 204.84387,293.1268 206.2589,290.89509 C 215.90123,284.48527 226.50315,280.00943 237.61547,276.90147 C 255.23913,271.92273 273.27832,267.15269 291.68954,266.85306 C 290.04123,272.08438 291.79277,277.12847 285.49167,279.23238 C 279.23646,283.07902 273.79445,288.68501 266.99861,291.36201 C 249.10654,295.90888 231.02891,300.9277 212.41847,300.40556 C 207.44608,300.23563 202.26633,301.4511 197.43237,300.05487 z M 424.35074,300.19153 C 408.72543,298.07699 392.98841,295.0924 378.00454,290.34425 C 371.41535,285.6986 364.83913,281.03445 358.23379,276.41179 C 356.90707,270.49269 355.61481,264.22012 363.48408,267.23695 C 390.73358,270.39185 418.30362,276.76683 442.07168,290.84798 C 445.83136,293.66093 449.59105,296.47387 453.35074,299.2868 C 443.90094,301.29327 433.94277,300.58099 424.35074,300.19153 z M 191.4073,295.62057 C 194.27523,289.46171 199.90953,275.48023 204.86278,274.91009 C 206.72951,279.26737 216.82616,278.68198 217.70663,281.31208 C 208.23455,286.03343 199.26547,291.67519 190.70486,297.88806 C 190.93901,297.13223 191.17316,296.3764 191.4073,295.62057 z M 448.8284,292.04681 C 442.60735,287.90175 435.97102,284.44865 429.36096,280.97824 C 435.6209,281.77321 443.21108,270.52394 446.09717,278.64926 C 447.90896,282.61216 461.4765,302.0008 448.8284,292.04681 z M 301.23886,284.91833 C 295.60012,281.74521 291.26682,273.30439 295.9461,267.70178 C 298.48057,263.44487 307.58675,265.73083 305.85074,272.22831 C 305.06835,278.61326 312.17416,274.3791 309.42661,269.95966 C 309.33157,266.14267 305.66988,260.81199 301.50746,262.04972 C 291.98744,263.65755 282.61221,265.98277 272.88782,265.20306 C 256.67932,265.01131 240.38952,265.79732 224.23211,264.99122 C 208.81917,264.02436 227.78402,255.89852 233.74941,253.88238 C 241.72699,250.21181 250.52075,250.04093 259.11891,249.68585 C 270.86053,251.27934 282.82466,252.48521 294.06704,256.20559 C 301.51716,256.88366 309.61459,254.81328 316.17145,259.28408 C 319.63688,261.08635 320.95418,266.1524 321.81463,269.78591 C 323.30496,276.22043 319.35267,281.84198 312.96114,283.67201 C 309.38698,284.63469 304.82667,286.87986 301.23886,284.91833 z M 336.48801,284.38828 C 332.39397,283.48878 328.8337,280.05288 326.85096,276.76245 C 326.79013,271.60068 326.18004,266.30813 329.57034,261.96812 C 332.45118,257.43013 338.50343,256.29252 343.62262,256.08586 C 359.8828,254.72451 375.90852,251.04003 391.94978,248.58834 C 401.24873,249.81132 410.8566,250.13432 419.15792,255.07614 C 425.60537,257.41548 436.6027,265.29827 424.04192,264.89412 C 409.08901,265.91016 393.97239,264.9442 378.95499,265.17947 C 370.09172,265.1332 361.17347,265.75456 352.63395,262.88259 C 347.82754,261.20702 341.87828,261.20301 339.52446,266.19338 C 340.24905,269.12214 336.03028,277.46935 341.16782,275.56105 C 344.03252,273.32879 342.0382,263.31762 349.25108,265.85306 C 353.60353,266.47632 354.43428,271.56405 353.85074,275.38078 C 353.4456,280.05558 350.20828,284.50866 345.30958,285.37707 C 342.35244,286.24195 339.28289,285.37453 336.48801,284.38828 z M 212.91112,276.4581 C 203.61697,273.29976 215.49035,270.9194 218.60671,268.75253 C 223.80588,265.51369 230.14261,269.28952 235.85296,268.55939 C 238.60759,269.4114 253.94874,268.097 250.2897,269.56918 C 241.60449,271.8647 233.12302,275.20187 224.6344,277.84002 C 220.69096,277.81638 216.68818,277.74521 212.91112,276.4581 z M 416.35074,275.6734 C 409.48051,273.04553 402.39505,271.05422 395.35074,268.95953 C 405.64983,268.82518 415.95923,268.54378 426.19849,267.35306 C 430.37313,269.35306 434.54777,271.35306 438.72241,273.35306 C 435.09971,279.13708 427.26382,277.50781 421.35074,277.64847 C 419.68407,276.99011 418.01741,276.33176 416.35074,275.6734 z M 209.68484,268.57892 C 213.1011,262.16975 220.31847,267.59956 210.96004,269.76706 C 207.40315,271.1628 203.65187,274.54876 209.68484,268.57892 z M 435.10074,268.88 C 424.65026,262.80246 442.53088,266.84697 438.2628,270.27526 L 436.92524,269.70166 L 435.10074,268.88 L 435.10074,268.88 z M 572.506,434.5672 C 572.506,575.30006 459.0236,689.51803 319.19706,689.51803 C 179.37052,689.51803 65.888115,575.30006 65.888115,434.5672 C 65.888115,293.83435 179.37052,179.61638 319.19706,179.61638 C 459.0236,179.61638 572.506,293.83435 572.506,434.5672 z "
       sodipodi:nodetypes="cccccccccccccccccccccccccccccccccccccccccccccccccccccccccccccccccccccccccccccccccccccccccccccccccccccccccccccccccccccccccccccccccccccccccccccccccccccccccccccccccccccccccccccccccccccccccccccccccccccccccccccccccccccccccccccccccccccccccccccccccccccccccccccccccccccccccccccccccccccccccccccccccccccccccccccccccccccccccccccccccccccccccccccccccccccccccccccccccccccccccccccccccccccccccccccccccccccccccccccccccccccccccccccccccccccccccccccccccccccccccccccccccccccccccccccccccccccccccccccccccccccccccccccccccccccccccccccccccccccccccccccccccccccccccccccccccccccccccccccccccccccccccccccccccccccccccccccccccccccccccccccccccccccccccccccccccccccccccccccccccccccccccccccccccccccccccccccccccccsssc" />
  </g>
</svg>
